<svg width="18" height="25" viewBox="0 0 18 25" fill="none" xmlns="http://www.w3.org/2000/svg">
    <path
        d="M8.51362 2.90072L1.98805 11.7119C1.23675 12.7263 0.861095 13.2336 1.04707 13.6395C1.23304 14.0454 1.84106 14.0454 3.05711 14.0454H5.69815C6.33907 14.0454 6.65952 14.0454 6.85863 14.2567C7.05774 14.4679 7.05774 14.8079 7.05774 15.4878V21.2081C7.05774 22.9407 7.05774 23.807 7.51533 23.9749C7.97292 24.1428 8.47741 23.4617 9.48638 22.0993L16.012 13.2881C16.7633 12.2737 17.1389 11.7664 16.9529 11.3605C16.767 10.9546 16.1589 10.9546 14.9429 10.9546H12.3018C11.6609 10.9546 11.3405 10.9546 11.1414 10.7433C10.9423 10.5321 10.9423 10.1921 10.9423 9.51217V3.79187C10.9423 2.05927 10.9423 1.19297 10.4847 1.02507C10.0271 0.857162 9.52259 1.53835 8.51362 2.90072Z"
        stroke="#F9F06B" stroke-width="2" stroke-linecap="round" />
</svg>
    