<svg width="24" height="26" viewBox="0 0 24 26" fill="none" xmlns="http://www.w3.org/2000/svg">
<path d="M12 13.2629L17.5 10.1082M12 13.2629V24.3262M12 13.2629L1.75619 7.38721M17.5 10.1082L6.5 3.79879M17.5 10.1082L22.3316 7.33686M6.5 3.79879L9.7011 1.9627C10.8201 1.32088 11.3796 0.999969 12 0.999969C12.6204 0.999969 13.1799 1.32088 14.2989 1.9627L20.8989 5.74833C21.9256 6.33723 22.439 6.63168 22.7195 7.10054C23 7.5694 23 8.13296 23 9.26009V16.7399C23 17.867 23 18.4305 22.7195 18.8994C22.439 19.3683 21.9256 19.6627 20.8989 20.2516L14.2989 24.0372C13.1799 24.6791 12.6204 25 12 25C11.3796 25 10.8201 24.6791 9.7011 24.0372L3.1011 20.2516C2.0744 19.6627 1.56104 19.3683 1.28052 18.8994C1 18.4305 1 17.867 1 16.7399V9.26009C1 8.13296 1 7.5694 1.28052 7.10054C1.56104 6.63168 2.0744 6.33723 3.1011 5.74833L6.5 3.79879Z" stroke="white" stroke-width="2" stroke-linecap="round"/>
</svg>
