<svg width="26" height="26" viewBox="0 0 26 26" fill="none" xmlns="http://www.w3.org/2000/svg">
<path d="M1.13831 17.8884L6.87869 12.1213C8.05026 10.9498 9.94975 10.9498 11.1213 12.1213L15 16M15 16L21.3849 22.5M15 16L17.8787 13.1213C19.0503 11.9498 20.9498 11.9498 22.1213 13.1213L25 16M13 25C9.27247 25 7.4087 25 5.93853 24.391C3.97831 23.5791 2.42092 22.0217 1.60896 20.0615C1 18.5913 1 16.7275 1 13C1 9.27247 1 7.4087 1.60896 5.93853C2.42092 3.97831 3.97831 2.42092 5.93853 1.60896C7.4087 1 9.27247 1 13 1C16.7275 1 18.5913 1 20.0615 1.60896C22.0217 2.42092 23.5791 3.97831 24.391 5.93853C25 7.4087 25 9.27247 25 13C25 16.7275 25 18.5913 24.391 20.0615C23.5791 22.0217 22.0217 23.5791 20.0615 24.391C18.5913 25 16.7275 25 13 25Z" stroke="white" stroke-width="2" stroke-linecap="round" stroke-linejoin="round"/>
<circle cx="18.5" cy="6.5" r="1.5" fill="white"/>
</svg>
