<svg width="24" height="24" viewBox="0 0 24 24" fill="none" xmlns="http://www.w3.org/2000/svg">
<g clip-path="url(#clip0_1517_10708)">
<path d="M16.1019 17.93L13.4049 20.537C12.9389 21.004 12.2939 21.199 11.5819 21.199C10.8699 21.199 10.2249 21.004 9.7579 20.537L5.4259 16.174C4.9589 15.707 4.7239 15.024 4.7239 14.311C4.7239 13.598 4.9589 12.954 5.4259 12.487L9.7449 8.10699C10.2119 7.63999 10.8699 7.46199 11.5819 7.46199C12.2939 7.46199 12.9389 7.65699 13.4049 8.12399L16.1019 10.73C16.6159 11.245 17.4669 11.227 18.0019 10.692C18.5369 10.156 18.5549 9.30499 18.0409 8.79099L15.4319 6.15499C14.7583 5.48904 13.9111 5.02577 12.9869 4.81799L15.4539 2.31499C15.9699 1.80099 15.9519 0.948988 15.4169 0.413988C14.8819 -0.121012 14.0299 -0.138012 13.5149 0.375988L3.4149 10.477C2.4339 11.459 1.9209 12.814 1.9209 14.312C1.9209 15.81 2.4339 17.207 3.4149 18.187L7.7619 22.548C8.7429 23.527 10.0989 24 11.5959 24C13.0929 24 14.4489 23.488 15.4309 22.506L18.0399 19.869C18.5539 19.355 18.5359 18.504 18.0009 17.969C17.4659 17.434 16.6149 17.416 16.1019 17.93ZM20.8109 13.01H10.6659C9.9639 13.01 9.3959 13.614 9.3959 14.356C9.3959 15.098 9.9639 15.702 10.6659 15.702H20.8109C21.5119 15.702 22.0809 15.098 22.0809 14.356C22.0809 13.614 21.5119 13.01 20.8109 13.01Z" fill="#4541FF"/>
</g>
<defs>
<clipPath id="clip0_1517_10708">
<rect width="24" height="24" fill="white"/>
</clipPath>
</defs>
</svg>
