<svg width="24" height="24" viewBox="0 0 24 24" fill="none" xmlns="http://www.w3.org/2000/svg">
    <g clip-path="url(#clip0_1492_1206)">
        <path
            d="M16.1019 17.9301L13.4049 20.5371C12.9389 21.0041 12.2939 21.1991 11.5819 21.1991C10.8699 21.1991 10.2249 21.0041 9.7579 20.5371L5.4259 16.1741C4.9589 15.7071 4.7239 15.0241 4.7239 14.3111C4.7239 13.5981 4.9589 12.9541 5.4259 12.4871L9.7449 8.10711C10.2119 7.64011 10.8699 7.46211 11.5819 7.46211C12.2939 7.46211 12.9389 7.65711 13.4049 8.12411L16.1019 10.7301C16.6159 11.2451 17.4669 11.2271 18.0019 10.6921C18.5369 10.1561 18.5549 9.30511 18.0409 8.79111L15.4319 6.15511C14.7583 5.48917 13.9111 5.02589 12.9869 4.81811L15.4539 2.31511C15.9699 1.80111 15.9519 0.94911 15.4169 0.41411C14.8819 -0.12089 14.0299 -0.13789 13.5149 0.37611L3.4149 10.4771C2.4339 11.4591 1.9209 12.8141 1.9209 14.3121C1.9209 15.8101 2.4339 17.2071 3.4149 18.1871L7.7619 22.5481C8.7429 23.5271 10.0989 24.0001 11.5959 24.0001C13.0929 24.0001 14.4489 23.4881 15.4309 22.5061L18.0399 19.8691C18.5539 19.3551 18.5359 18.5041 18.0009 17.9691C17.4659 17.4341 16.6149 17.4161 16.1019 17.9301ZM20.8109 13.0101H10.6659C9.9639 13.0101 9.3959 13.6141 9.3959 14.3561C9.3959 15.0981 9.9639 15.7021 10.6659 15.7021H20.8109C21.5119 15.7021 22.0809 15.0981 22.0809 14.3561C22.0809 13.6141 21.5119 13.0101 20.8109 13.0101Z"
            fill="white" />
    </g>
    <defs>
        <clipPath id="clip0_1492_1206">
            <rect width="24" height="24" fill="white" />
        </clipPath>
    </defs>
</svg>
    