<svg width="42" height="43" viewBox="0 0 42 43" fill="none" xmlns="http://www.w3.org/2000/svg">
    <path
        d="M37.8479 21.1037L31.8892 17.6326V27.7773H38.4998V22.2377C38.4998 21.7704 38.2513 21.3391 37.8479 21.1037Z"
        fill="#103262" />
    <path d="M11.375 9.25H20.125V17.125H11.375V9.25Z" fill="#0084D7" />
    <path d="M20.125 9.25H28.875V17.125H20.125V9.25Z" fill="#33AFEC" />
    <path d="M28.875 9.25H37.625V17.125H28.875V9.25Z" fill="#54DAFF" />
    <path d="M20.125 17.125H28.875V25H20.125V17.125Z" fill="#027AD4" />
    <path d="M20.125 25H28.875V32.875H20.125V25Z" fill="#0553A4" />
    <path d="M28.875 17.125H37.625V25H28.875V17.125Z" fill="#25A2E5" />
    <path d="M28.875 25H37.625V32.875H28.875V25Z" fill="#0262B8" />
    <path opacity="0.019" d="M11.375 32.875H37.625V21.7083L25.3663 28.7083L11.375 21.7083V32.875Z"
        fill="black" />
    <path opacity="0.038" d="M11.375 32.875H37.625V21.9165L25.3663 28.9165L11.375 21.9165V32.875Z"
        fill="black" />
    <path opacity="0.057" d="M11.375 32.875H37.625V22.1248L25.3663 29.1248L11.375 22.1248V32.875Z"
        fill="black" />
    <path opacity="0.076" d="M11.375 32.875H37.625V22.333L25.3663 29.333L11.375 22.333V32.875Z"
        fill="black" />
    <path opacity="0.095" d="M11.375 32.875H37.625V22.5413L25.3663 29.5413L11.375 22.5413V32.875Z"
        fill="black" />
    <path opacity="0.114" d="M11.375 32.8751H37.625V22.7505L25.3663 29.7505L11.375 22.7505V32.8751Z"
        fill="black" />
    <path opacity="0.133" d="M11.375 32.8751H37.625V22.9587L25.3663 29.9587L11.375 22.9587V32.8751Z"
        fill="black" />
    <path opacity="0.152" d="M11.375 32.8751H37.625V23.167L25.3663 30.167L11.375 23.167V32.8751Z"
        fill="black" />
    <path opacity="0.171" d="M11.375 32.8749H37.625V23.375L25.3663 30.375L11.375 23.375V32.8749Z"
        fill="black" />
    <path opacity="0.191" d="M11.375 32.8751H37.625V23.5835L25.3663 30.5835L11.375 23.5835V32.8751Z"
        fill="black" />
    <path opacity="0.209" d="M11.375 32.8749H37.625V23.7915L25.3663 30.7915L11.375 23.7915V32.8749Z"
        fill="black" />
    <path opacity="0.229" d="M11.375 32.8749H37.625V23.9998L25.3663 30.9998L11.375 23.9998V32.8749Z"
        fill="black" />
    <path opacity="0.248" d="M11.375 32.8749H37.625V24.208L25.3663 31.208L11.375 24.208V32.8749Z"
        fill="black" />
    <path opacity="0.267" d="M11.375 32.8749H37.625V24.4163L25.3663 31.4163L11.375 24.4163V32.8749Z"
        fill="black" />
    <path opacity="0.286" d="M11.375 32.8749H37.625V24.6245L25.3663 31.6245L11.375 24.6245V32.8749Z"
        fill="black" />
    <path opacity="0.305" d="M11.375 32.875H37.625V24.8337L25.3663 31.8337L11.375 24.8337V32.875Z"
        fill="black" />
    <path opacity="0.324" d="M11.375 32.875H37.625V25.042L25.3663 32.042L11.375 25.042V32.875Z"
        fill="black" />
    <path opacity="0.343" d="M11.375 32.875H37.625V25.2502L25.3663 32.2502L11.375 25.2502V32.875Z"
        fill="black" />
    <path opacity="0.362" d="M11.375 32.875H37.625V25.4585L25.3663 32.4585L11.375 25.4585V32.875Z"
        fill="black" />
    <path opacity="0.381" d="M11.375 32.875H37.625V25.6667L25.3663 32.6667L11.375 25.6667V32.875Z"
        fill="black" />
    <path opacity="0.4" d="M11.375 32.875H37.625V25.875L25.3663 32.875L11.375 25.875V32.875Z"
        fill="black" />
    <path
        d="M13.5108 37.2499H36.7534C37.7194 37.2499 38.5025 36.472 38.5034 35.5052C38.506 31.5493 38.4999 22.2375 38.4999 22.2375C38.4999 22.2375 38.4938 22.4318 36.9678 23.298C35.4418 24.1643 12.9009 36.8702 12.9009 36.8702C12.9009 36.8702 13.1056 37.2499 13.5108 37.2499Z"
        fill="url(#paint0_linear_1413_11251)" />
    <path
        d="M37.625 9.25H11.375V7.5C11.375 6.53312 12.1581 5.75 13.125 5.75H35.875C36.8419 5.75 37.625 6.53312 37.625 7.5V9.25Z"
        fill="url(#paint1_linear_1413_11251)" />
    <path
        d="M11.375 22.375V35.5C11.375 36.4669 12.1581 37.25 13.125 37.25H26.25H36.7535C37.1578 37.25 37.5261 37.1083 37.8219 36.8781L11.375 22.375Z"
        fill="url(#paint2_linear_1413_11251)" />
    <path opacity="0.05"
        d="M18.6541 11.875H11.375V32.875H18.6541C20.433 32.875 21.875 31.433 21.875 29.6541V15.0959C21.875 13.317 20.433 11.875 18.6541 11.875Z"
        fill="black" />
    <path opacity="0.07"
        d="M18.5614 31.9999H11.375V12.1663H18.5614C20.0699 12.1663 21.2922 13.3886 21.2922 14.8971V29.269C21.2914 30.7775 20.069 31.9999 18.5614 31.9999Z"
        fill="black" />
    <path opacity="0.09"
        d="M18.4677 31.1251H11.375V12.4587H18.4677C19.705 12.4587 20.7077 13.4615 20.7077 14.6987V28.8851C20.7086 30.1224 19.705 31.1251 18.4677 31.1251Z"
        fill="black" />
    <path
        d="M18.375 30.25H4.375C3.40812 30.25 2.625 29.4669 2.625 28.5V14.5C2.625 13.5331 3.40812 12.75 4.375 12.75H18.375C19.3419 12.75 20.125 13.5331 20.125 14.5V28.5C20.125 29.4669 19.3419 30.25 18.375 30.25Z"
        fill="url(#paint3_linear_1413_11251)" />
    <path
        d="M11.3751 16.8547C8.65293 16.8547 7.01318 18.9346 7.01318 21.5001C7.01318 24.0656 8.64681 26.1455 11.3751 26.1455C14.1042 26.1455 15.7369 24.0656 15.7369 21.501C15.7369 18.9346 14.0972 16.8547 11.3751 16.8547ZM11.3751 24.5775C9.83068 24.5775 8.90756 23.2002 8.90756 21.501C8.90756 19.8017 9.83506 18.4245 11.3751 18.4245C12.9151 18.4245 13.8434 19.8026 13.8434 21.501C13.8434 23.1994 12.9186 24.5775 11.3751 24.5775Z"
        fill="#1DA1F2" />
    <defs>
        <linearGradient id="paint0_linear_1413_11251" x1="34.0593" y1="21.9873" x2="28.2501"
            y2="32.0209" gradientUnits="userSpaceOnUse">
            <stop stop-color="#31ABEC" />
            <stop offset="1" stop-color="#1582D5" />
        </linearGradient>
        <linearGradient id="paint1_linear_1413_11251" x1="11.9569" y1="6.618" x2="36.1244"
            y2="8.43975" gradientUnits="userSpaceOnUse">
            <stop offset="0.042" stop-color="#076DB4" />
            <stop offset="0.85" stop-color="#0461AF" />
        </linearGradient>
        <linearGradient id="paint2_linear_1413_11251" x1="24.6339" y1="29.5658" x2="20.6833"
            y2="36.4625" gradientUnits="userSpaceOnUse">
            <stop stop-color="#33ACEE" />
            <stop offset="1" stop-color="#1B8EDF" />
        </linearGradient>
        <linearGradient id="paint3_linear_1413_11251" x1="3.08875" y1="13.2137" x2="19.6087"
            y2="29.7337" gradientUnits="userSpaceOnUse">
            <stop stop-color="#1784D8" />
            <stop offset="1" stop-color="#0864C5" />
        </linearGradient>
    </defs>
</svg>
    