<svg width="32" height="32" viewBox="0 0 32 32" fill="none" xmlns="http://www.w3.org/2000/svg">
    <path
        d="M10.0634 29.5009C22.1389 29.5009 28.7437 19.4965 28.7437 10.8206C28.7437 10.5365 28.7437 10.2536 28.7245 9.97197C30.0094 9.04258 31.1185 7.89182 32 6.57357C30.8019 7.10477 29.5307 7.45298 28.2291 7.60653C29.5998 6.78612 30.6255 5.49558 31.1155 3.97517C29.8268 4.73998 28.4168 5.27894 26.9466 5.56877C25.9567 4.51621 24.6475 3.81923 23.2216 3.58568C21.7957 3.35214 20.3326 3.59506 19.0586 4.27684C17.7847 4.95863 16.771 6.04127 16.1743 7.35724C15.5777 8.6732 15.4314 10.1491 15.7581 11.5566C13.1479 11.4257 10.5943 10.7473 8.26327 9.56558C5.9322 8.38384 3.87569 6.72512 2.2272 4.69709C1.38764 6.14242 1.1305 7.8534 1.50813 9.48165C1.88577 11.1099 2.86979 12.533 4.25984 13.4613C3.21498 13.4306 2.19286 13.1488 1.28 12.6395V12.7227C1.28041 14.2385 1.80513 15.7075 2.76516 16.8805C3.72519 18.0535 5.06141 18.8584 6.5472 19.1585C5.58064 19.4222 4.5665 19.4607 3.58272 19.2712C4.00242 20.5756 4.81924 21.7163 5.91899 22.5338C7.01873 23.3512 8.34644 23.8046 9.71648 23.8305C8.35525 24.9005 6.79642 25.6916 5.12917 26.1585C3.46191 26.6255 1.71895 26.7591 0 26.5518C3.00244 28.4785 6.4959 29.5005 10.0634 29.4958"
        fill="#1DA1F2" />
</svg>
    